<svg width="192" height="192" viewBox="0 0 192 192" xmlns="http://www.w3.org/2000/svg">
  <style>
    :root{
      --bg:#0B0F19;        /* background */
      --stroke:#6D5DF6;    /* primary accent */
      --glow:#20C997;      /* secondary accent */
    }
  </style>
  <rect x="0" y="0" width="192" height="192" rx="28" fill="var(--bg)"/>
  <defs>
    <linearGradient id="acc" x1="0" y1="0" x2="1" y2="1">
      <stop offset="0" stop-color="var(--stroke)"/>
      <stop offset="1" stop-color="var(--glow)"/>
    </linearGradient>
    <filter id="soft" x="-40%" y="-40%" width="180%" height="180%">
      <feGaussianBlur in="SourceGraphic" stdDeviation="3"/>
    </filter>
  </defs>

  <!-- Outer cube -->
  <g transform="translate(96,96) scale(1.0)">
    <!-- Cube A (front) -->
    <g stroke="url(#acc)" stroke-width="3" fill="none">
      <!-- square front -->
      <rect x="-42" y="-42" width="84" height="84" rx="8"/>
      <!-- square back (offset) -->
      <rect x="-26" y="-26" width="84" height="84" rx="8"/>
      <!-- connecting edges -->
      <line x1="-42" y1="-42" x2="-26" y2="-26"/>
      <line x1="42"  y1="-42" x2="58"  y2="-26"/>
      <line x1="-42" y1="42"  x2="-26" y2="58"/>
      <line x1="42"  y1="42"  x2="58"  y2="58"/>
    </g>

    <!-- Inner "4D linkage" (suggests tesseract) -->
    <g stroke="url(#acc)" stroke-width="2" opacity="0.9">
      <line x1="-42" y1="0" x2="0" y2="-26"/>
      <line x1="42"  y1="0" x2="0" y2="-26"/>
      <line x1="-42" y1="0" x2="0" y2="26"/>
      <line x1="42"  y1="0" x2="0" y2="26"/>
      <circle cx="0" cy="-26" r="2.5" fill="var(--glow)" filter="url(#soft)"/>
      <circle cx="0" cy="26"  r="2.5" fill="var(--stroke)" filter="url(#soft)"/>
    </g>
  </g>
</svg>
